<svg width="9" height="12" viewBox="0 0 9 12" fill="none" xmlns="http://www.w3.org/2000/svg">
<g filter="url(#filter0_i_4276_1523)">
<path fill-rule="evenodd" clip-rule="evenodd" d="M1.5 0C0.671573 0 0 0.671573 0 1.5V10.5C0 11.3284 0.671573 12 1.5 12C2.32843 12 3 11.3284 3 10.5V1.5C3 0.671573 2.32843 0 1.5 0ZM7.5 0C6.67157 0 6 0.671573 6 1.5V10.5C6 11.3284 6.67157 12 7.5 12C8.32843 12 9 11.3284 9 10.5V1.5C9 0.671573 8.32843 0 7.5 0Z" fill="#D0B6FF"/>
</g>
<defs>
<filter id="filter0_i_4276_1523" x="-1" y="0" width="10" height="13" filterUnits="userSpaceOnUse" color-interpolation-filters="sRGB">
<feFlood flood-opacity="0" result="BackgroundImageFix"/>
<feBlend mode="normal" in="SourceGraphic" in2="BackgroundImageFix" result="shape"/>
<feColorMatrix in="SourceAlpha" type="matrix" values="0 0 0 0 0 0 0 0 0 0 0 0 0 0 0 0 0 0 127 0" result="hardAlpha"/>
<feOffset dx="-1" dy="1"/>
<feGaussianBlur stdDeviation="1.5"/>
<feComposite in2="hardAlpha" operator="arithmetic" k2="-1" k3="1"/>
<feColorMatrix type="matrix" values="0 0 0 0 0 0 0 0 0 0 0 0 0 0 0 0 0 0 0.23 0"/>
<feBlend mode="normal" in2="shape" result="effect1_innerShadow_4276_1523"/>
</filter>
</defs>
</svg>
