<svg width="14" height="15" viewBox="0 0 14 15" fill="none" xmlns="http://www.w3.org/2000/svg">
<path fill-rule="evenodd" clip-rule="evenodd" d="M11.0015 6C11.0015 7.65685 9.65832 9 8.00146 9C6.34461 9 5.00146 7.65685 5.00146 6C5.00146 4.34315 6.34461 3 8.00146 3C9.65832 3 11.0015 4.34315 11.0015 6ZM14.0015 6C14.0015 9.31371 11.3152 12 8.00146 12C6.9448 12 5.95192 11.7268 5.08961 11.2473L2.67003 13.6669C2.08425 14.2527 1.1345 14.2527 0.548715 13.6669C-0.0370717 13.0811 -0.0370715 12.1313 0.548715 11.5456L2.9132 9.18107C2.33547 8.2589 2.00146 7.16846 2.00146 6C2.00146 2.68629 4.68776 0 8.00146 0C11.3152 0 14.0015 2.68629 14.0015 6Z" fill="#909090"/>
</svg>
