<svg width="20" height="13" viewBox="0 0 20 13" fill="none" xmlns="http://www.w3.org/2000/svg">
<g clip-path="url(#clip0_4975_2238)">
<path d="M18.7776 2.97244H5.75431C5.0965 2.97244 4.56494 2.3845 4.56494 1.66591C4.56494 0.947315 5.0965 0.359375 5.75431 0.359375H18.7776C19.4354 0.359375 19.9669 0.947315 19.9669 1.66591C19.9669 2.3845 19.4354 2.97244 18.7776 2.97244Z" fill="white"/>
<path d="M1.69435 3.33166C2.63012 3.33166 3.3887 2.58584 3.3887 1.66583C3.3887 0.745817 2.63012 0 1.69435 0C0.758587 0 0 0.745817 0 1.66583C0 2.58584 0.758587 3.33166 1.69435 3.33166Z" fill="white"/>
<path d="M18.7776 7.81326H5.75431C5.0965 7.81326 4.56494 7.22532 4.56494 6.50673C4.56494 5.78813 5.0965 5.2002 5.75431 5.2002H18.7776C19.4354 5.2002 19.9669 5.78813 19.9669 6.50673C19.9669 7.22532 19.4354 7.81326 18.7776 7.81326Z" fill="white"/>
<path d="M1.69435 8.17248C2.63012 8.17248 3.3887 7.42666 3.3887 6.50665C3.3887 5.58664 2.63012 4.84082 1.69435 4.84082C0.758587 4.84082 0 5.58664 0 6.50665C0 7.42666 0.758587 8.17248 1.69435 8.17248Z" fill="white"/>
<path d="M18.7776 12.6536H5.75431C5.0965 12.6536 4.56494 12.0657 4.56494 11.3471C4.56494 10.6285 5.0965 10.0405 5.75431 10.0405H18.7776C19.4354 10.0405 19.9669 10.6285 19.9669 11.3471C19.9669 12.0657 19.4354 12.6536 18.7776 12.6536Z" fill="white"/>
<path d="M1.69435 13.0133C2.63012 13.0133 3.3887 12.2675 3.3887 11.3475C3.3887 10.4275 2.63012 9.68164 1.69435 9.68164C0.758587 9.68164 0 10.4275 0 11.3475C0 12.2675 0.758587 13.0133 1.69435 13.0133Z" fill="white"/>
</g>
<defs>
<clipPath id="clip0_4975_2238">
<rect width="20" height="13" fill="white"/>
</clipPath>
</defs>
</svg>
